<?xml version="1.0" standalone="no"?>
<!DOCTYPE svg PUBLIC "-//W3C//DTD SVG 1.1//EN" "http://www.w3.org/Graphics/SVG/1.1/DTD/svg11.dtd" >
<svg xmlns="http://www.w3.org/2000/svg">
<metadata>
Created by FontForge 20120731 at Fri Dec 30 13:06:27 2016
 By admin
</metadata>
<defs>
<font id="iconfont" horiz-adv-x="1024" >
  <font-face 
    font-family="iconfont"
    font-weight="500"
    font-stretch="normal"
    units-per-em="1024"
    panose-1="2 0 6 3 0 0 0 0 0 0"
    ascent="896"
    descent="-128"
    x-height="792"
    bbox="0 -212.4 1259.57 896"
    underline-thickness="0"
    underline-position="0"
    unicode-range="U+0078-E782"
  />
<missing-glyph 
 />
    <glyph glyph-name=".notdef" 
 />
    <glyph glyph-name=".notdef" 
 />
    <glyph glyph-name=".null" horiz-adv-x="0" 
 />
    <glyph glyph-name="nonmarkingreturn" horiz-adv-x="341" 
 />
    <glyph glyph-name="x" unicode="x" horiz-adv-x="1001" 
d="M281 543q-27 -1 -53 -1h-83q-18 0 -36.5 -6t-32.5 -18.5t-23 -32t-9 -45.5v-76h912v41q0 16 -0.5 30t-0.5 18q0 13 -5 29t-17 29.5t-31.5 22.5t-49.5 9h-133v-97h-438v97zM955 310v-52q0 -23 0.5 -52t0.5 -58t-10.5 -47.5t-26 -30t-33 -16t-31.5 -4.5q-14 -1 -29.5 -0.5
t-29.5 0.5h-32l-45 128h-439l-44 -128h-29h-34q-20 0 -45 1q-25 0 -41 9.5t-25.5 23t-13.5 29.5t-4 30v167h911zM163 247q-12 0 -21 -8.5t-9 -21.5t9 -21.5t21 -8.5q13 0 22 8.5t9 21.5t-9 21.5t-22 8.5zM316 123q-8 -26 -14 -48q-5 -19 -10.5 -37t-7.5 -25t-3 -15t1 -14.5
t9.5 -10.5t21.5 -4h37h67h81h80h64h36q23 0 34 12t2 38q-5 13 -9.5 30.5t-9.5 34.5q-5 19 -11 39h-368zM336 498v228q0 11 2.5 23t10 21.5t20.5 15.5t34 6h188q31 0 51.5 -14.5t20.5 -52.5v-227h-327z" />
    <glyph glyph-name="sousuojieguomeiyou" unicode="&#xe68a;" 
d="M512.5 -146q-90.5 0 -173.5 35.5t-142.5 95.5t-95 142.5t-35.5 173.5t35.5 173.5t95 142.5t142.5 95.5t173.5 35.5t173.5 -35.5t143 -95.5t95.5 -142.5t35.5 -173.5t-35.5 -173.5t-95.5 -142.5t-143 -95.5t-173.5 -35.5zM513 684q-104 0 -192.5 -51.5t-139.5 -139.5
t-51 -192t51 -192t139.5 -139.5t192.5 -51.5t192 51.5t139.5 139.5t51.5 192t-51.5 192t-139.5 139.5t-192 51.5zM357 462zM305 462q0 22 15 37t37 15t37 -15t15 -37t-15 -37t-37 -15t-37 15t-15 37zM680 462zM628 462q0 22 15 37t37 15t37 -15t15 -37t-15 -37t-37 -15
t-37 15t-15 37zM715 76q-15 0 -24 12q-85 103 -175 102q-27 -1 -54.5 -12t-46 -24t-36 -30t-23 -23.5t-8.5 -10.5q-7 -11 -20.5 -13t-24 5.5t-12.5 20.5t5 24l12.5 15t29 30t45.5 37t59.5 29.5t70.5 15.5q120 5 227 -125q9 -11 7.5 -24t-11.5 -21q-9 -8 -21 -8z" />
    <glyph glyph-name="iconsousuo" unicode="&#xe616;" 
d="M739 43h-583q-12 0 -20.5 -8.5t-8.5 -20.5v-5q0 -12 8.5 -20.5t20.5 -8.5h583q12 0 20.5 8.5t8.5 20.5v5q0 12 -8.5 20.5t-20.5 8.5zM472.5 293q42.5 -83 131 -111.5t171.5 14t111.5 131t-13.5 171.5t-131 111.5t-171.5 -14t-111.5 -131t13.5 -171.5zM599.5 539.5
q59.5 30.5 123 10t94 -80t10 -123.5t-80 -94.5t-123.5 -10t-94.5 80.5t-9.5 123.5t80.5 94zM156 172h329q-32 28 -56 63h-273q-12 0 -20.5 -8.5t-8.5 -20.5v-5q0 -12 8.5 -20.5t20.5 -8.5zM156 362h228q-1 15 -1 31t2 33h-229q-12 0 -20.5 -8.5t-8.5 -20.5v-6
q0 -12 8.5 -20.5t20.5 -8.5zM156 555h276q25 36 59 63h-335q-12 0 -20.5 -8.5t-8.5 -20.5v-5q0 -12 8.5 -20.5t20.5 -8.5zM898 23l-64 125q-5 10 -16 13.5t-21 -1.5l-7 -4q-10 -5 -13.5 -16t1.5 -21l64 -124q5 -11 16 -14.5t21 2.5l7 3q10 5 13.5 16t-1.5 21z" />
    <glyph glyph-name="iconsousuo1" unicode="&#xe631;" 
d="M469.5 293q42.5 -83 131.5 -111.5t171.5 14t111.5 131t-13.5 171.5t-131 111.5t-171.5 -14t-112 -131t13.5 -171.5zM585.5 561q68.5 35 141.5 11t108 -92t11.5 -141.5t-92 -108.5t-141.5 -11t-108 92t-11.5 141.5t92 108.5zM895 23l-64 125q-5 10 -16 13.5t-21 -1.5
l-6 -4q-11 -5 -14.5 -16t1.5 -21l64 -124q5 -11 16 -14.5t21 2.5l7 3q10 5 13.5 16t-1.5 21zM148 575h304q9 0 15.5 6.5t6.5 15.5t-6.5 15.5t-15.5 6.5h-304q-9 0 -15.5 -6.5t-6.5 -15.5t6.5 -15.5t15.5 -6.5zM148 377h225q9 0 15.5 6.5t6.5 15.5t-6.5 15.5t-15.5 6.5h-225
q-9 0 -15.5 -6.5t-6.5 -15.5t6.5 -15.5t15.5 -6.5zM148 179h290q9 0 15.5 6.5t6.5 15.5t-6.5 15.5t-15.5 6.5h-290q-9 0 -15.5 -6.5t-6.5 -15.5t6.5 -15.5t15.5 -6.5zM745 23h-599q-8 0 -14 -6t-6 -14.5t6 -14.5t14 -6h599q8 0 14 6t6 14.5t-6 14.5t-14 6z" />
    <glyph glyph-name="zhanneisousuo" unicode="&#xe635;" 
d="M809 -111h-770q-16 0 -27 -13.5t-11 -32.5v-9q0 -19 11 -32.5t27 -13.5h770q16 0 27.5 13.5t11.5 32.5v9q0 19 -11.5 32.5t-27.5 13.5v0zM458 289q27 -65 73 -111.5t99.5 -67t113.5 -16t113.5 38t92 89t56 120.5t13 137t-32 137t-73.5 111.5t-99.5 67.5t-113 16
t-113.5 -38.5t-92 -89t-55.5 -120t-13.5 -137t32 -137.5v0zM625 683q79 48 163 15.5t124.5 -128t13 -197.5t-106 -150.5t-163 -15.5t-124.5 128t-13 197t106 151v0zM39 95h435q-43 45 -73 102h-362q-16 0 -27 -13.5t-11 -33.5v-8q0 -19 11 -33t27 -14v0zM39 400h302
q-2 24 -2 48q0 26 3 53h-303q-16 0 -27 -13.5t-11 -32.5v-9q0 -19 11 -32.5t27 -13.5v0zM39 707h366q32 58 77 101h-443q-16 0 -27 -13.5t-11 -32.5v-9q0 -19 11 -32.5t27 -13.5v0zM1020 -142l-84 199q-7 16 -21.5 21.5t-28.5 -2.5l-8 -5q-14 -9 -18.5 -26.5t2.5 -33.5
l84 -199q6 -16 20.5 -22t28.5 3l9 5q13 9 18 26.5t-2 33.5v0zM1020 -142z" />
    <glyph glyph-name="fenleisousuo2" unicode="&#xe626;" 
d="M948 415q-20 109 -112 171.5t-201.5 41.5t-172 -113t-41.5 -201t113 -171.5t201 -41.5q30 5 59 18l93 -166q3 -6 10.5 -7.5t15 2.5t10 11t-0.5 13l-92 166q68 44 101 119.5t17 157.5zM728.5 137q-94.5 -18 -173.5 36t-97 148t35.5 173.5t148 97.5t173.5 -36t97 -148
t-35.5 -173.5t-148 -97.5zM894 715h-71h-178h-9h-9h-15h-9h-9h-20h-19h-23h-78h-64h-24h-18h-4h-245q-9 0 -15.5 -6.5t-6.5 -15.5t6.5 -15t15.5 -6h245h4h6h12h44h158h6h20h5h40h6h178h71q10 0 16 6t6 15t-6 15.5t-16 6.5zM104 471q-11 0 -19 -6t-8 -15t8 -15.5t19 -6.5h200
q4 22 10 43h-210zM326 228h-227q-9 0 -15.5 -6.5t-6.5 -15.5t6.5 -15.5t15.5 -6.5h248q-11 20 -20 44h-1v0zM735 -16h-1h-127h-2h-120h-7h-11h-111h-18h-121h-129q-9 0 -15.5 -6.5t-6.5 -15.5t6.5 -15.5t15.5 -6.5h129h121h18h111h11h7h120h2h124h3h26z" />
    <glyph glyph-name="sousuocaidan" unicode="&#xe64f;" 
d="M189 474h304q12 -2 12 -14.5t-12 -13.5v0v0h-2h-1h-301q-5 0 -9 4t-4 9.5t4 10t9 4.5zM189 321h304q12 -2 12 -14t-12 -14v0v0h-2h-1h-301q-5 0 -9 4t-4 10t4 10t9 4zM189 169l496 -1q11 -1 11 -13.5t-11 -13.5v-1h-1h-1h-2h-492q-5 0 -9 4.5t-4 10t4 10t9 4.5zM189 16
h496q11 -2 11 -14t-11 -14v0h-1h-1h-2h-492q-5 0 -9 4t-4 10t4 10t9 4v0zM697 522q66 0 113 -46.5t47 -113t-47 -112.5q-9 -9 -18 -16l122 -212q8 -13 -5.5 -21t-21.5 6l-122 211q-32 -15 -68 -15q-66 0 -112.5 46.5t-46.5 113t46.5 113t112.5 46.5v0zM788 453.5
q-38 37.5 -91 37.5t-90.5 -37.5t-37.5 -91t37.5 -91t90.5 -37.5t91 37.5t38 91t-38 91z" />
    <glyph glyph-name="sousuoliebiao" unicode="&#xe649;" 
d="M953 4l-143 186q82 79 82 192q0 109 -77.5 187t-187 78t-187 -78t-77.5 -187.5t77.5 -187t187.5 -77.5q69 0 129 34l143 -187q10 -13 26 -13q11 0 20 7q11 8 13 21.5t-6 24.5v0zM429 382q0 82 58 140t140.5 58t140.5 -58t58 -140t-58 -140.5t-140.5 -58.5t-140.5 58.5
t-58 140.5v0zM296 515h-198q-14 0 -23.5 9.5t-9.5 23.5t9.5 23.5t23.5 9.5h198q14 0 23.5 -9.5t9.5 -23.5t-9.5 -23.5t-23.5 -9.5v0zM230 250h-132q-14 0 -23.5 9.5t-9.5 23.5t9.5 23.5t23.5 9.5h132q14 0 23.5 -9.5t9.5 -23.5t-9.5 -23.5t-23.5 -9.5v0zM462 18h-364
q-14 0 -23.5 10t-9.5 23.5t9.5 23.5t23.5 10h364q14 0 23.5 -10t9.5 -23.5t-9.5 -23.5t-23.5 -10v0zM462 18z" />
    <glyph glyph-name="daohangfenleisousuo" unicode="&#xe61b;" 
d="M245 506h-135q-13 0 -23 9.5t-10 23.5t10 23.5t23 9.5h135q14 0 23.5 -9.5t9.5 -23.5t-9.5 -23.5t-23.5 -9.5zM203 356h-93q-13 0 -23 9.5t-10 23.5t10 23.5t23 9.5h93q14 0 23.5 -9.5t9.5 -23.5t-9.5 -23.5t-23.5 -9.5zM227 205h-117q-13 0 -23 10t-10 23.5t10 23.5
t23 10h117q14 0 23.5 -10t9.5 -23.5t-9.5 -23.5t-23.5 -10zM339 55h-229q-13 0 -23 10t-10 23.5t10 23.5t23 10h229q14 0 23.5 -10t9.5 -23.5t-9.5 -23.5t-23.5 -10zM611 41q-127 0 -217 90t-90 217t90 217t217 90t217 -90t90 -217q0 -121 -83 -209q-9 -10 -23 -10.5
t-24 8.5t-10.5 23t8.5 24q65 69 65 164q0 99 -70.5 169.5t-169.5 70.5t-169.5 -70.5t-70.5 -169.5t70.5 -169.5t169.5 -70.5q52 0 99 21q13 6 26 1t18.5 -17.5t0.5 -25.5t-17 -18q-60 -28 -127 -28zM919 8q-14 0 -24 11l-108 118q-9 10 -8 24t11 23t23.5 8.5t23.5 -10.5
l107 -119q9 -10 8.5 -23.5t-10.5 -23.5q-10 -8 -23 -8z" />
    <glyph glyph-name="fenleisousuo-copy" unicode="&#xe607;" 
d="M87 640h234q10 32 24 64h-258q-10 0 -16.5 -9.5t-6.5 -22.5t6.5 -22.5t16.5 -9.5v0zM89 316h293q-18 32 -31 64h-262q-10 0 -17 -9.5t-7 -22.5t7 -22.5t17 -9.5v0zM865 64h-777q-10 0 -17 -9t-7 -22.5t7 -22.5t17 -9h777q10 0 17 9t7 22.5t-7 22.5t-17 9v0zM954 154
l-135 138q91 78 93 201q1 114 -78.5 195t-193 82t-194.5 -78t-82 -192.5t78 -194.5t193 -83q82 -1 133 30l140 -142q7 -7 20 -4t20 10t9.5 19t-3.5 19v0zM635 287q-86 1 -146.5 63t-59.5 148.5t62.5 147t148 59.5t147.5 -62.5t60 -148.5t-63 -147.5t-149 -59.5v0zM635 293z
" />
    <glyph glyph-name="dingdansousuo" unicode="&#xe61c;" 
d="M49 645q0 14 10 24t24 10h305q14 0 24 -10t10 -24t-10 -24t-24 -10h-305q-14 0 -24 10t-10 24zM83 305h306q15 0 24.5 10t9.5 24t-9.5 24t-24.5 10h-306q-14 0 -24 -10t-10 -24t10 -24t24 -10zM934 67h-851q-14 0 -24 -10t-10 -24t10 -24t24 -10h851q14 0 24 10t10 24
t-10 24t-24 10zM501 395q-57 80 -40 177t98 154q61 43 136 43q58 0 109.5 -26.5t85.5 -74.5q53 -76 41.5 -166.5t-79.5 -149.5q0 -1 0.5 -1h0.5l117 -167q6 -9 4 -19.5t-10 -16.5q-7 -5 -15 -5q-13 0 -21 11l-117 167q0 1 -0.5 1.5l-0.5 0.5q-54 -30 -114 -30
q-58 0 -109.5 26.5t-85.5 75.5zM542 424q27 -38 67.5 -59t86.5 -21q58 0 107 34q63 44 76.5 120.5t-30.5 139.5q-27 38 -67.5 59t-86.5 21q-58 0 -107 -34q-63 -44 -76.5 -120.5t30.5 -139.5z" />
    <glyph glyph-name="zhanwaisousuo" unicode="&#xe636;" horiz-adv-x="1260" 
d="M995 -26h-948q-20 0 -33.5 -13.5t-13.5 -32.5v-9q0 -19 14 -32.5t33 -13.5h948q20 0 33.5 13.5t13.5 32.5v9q0 19 -13.5 32.5t-33.5 13.5v0v0zM562 373q34 -65 91 -111t123 -67t139.5 -16t139.5 38.5t113.5 89t68.5 120t16 136.5t-39 137t-90.5 111.5t-122.5 67.5
t-139.5 16t-140.5 -39q-66 -33 -113 -88.5t-68 -120t-16 -137t38 -137.5v0v0zM769 767q96 48 200 15.5t154 -127.5q49 -96 15.5 -197.5t-129.5 -150.5q-98 -48 -202 -15.5t-153 128.5q-31 66 -28.5 131.5t41 124.5t102.5 91v0v0zM47 180h535q-54 46 -90 102h-445
q-19 0 -33 -14t-14 -33v-9q0 -19 13.5 -32.5t33.5 -13.5v0v0zM47 484h372q-3 24 -3 48q0 30 4 53h-373q-20 0 -33.5 -13.5t-13.5 -32.5v-9q0 -19 13.5 -32.5t33.5 -13.5v0v0zM47 791h450q40 58 95 102h-545q-19 0 -33 -14t-14 -33v-8q0 -20 13.5 -33.5t33.5 -13.5v0v0z
M1255 -57l-104 199q-9 16 -26.5 21.5t-34.5 -3.5l-10 -5q-17 -8 -23 -25.5t3 -34.5l103 -197q9 -17 27 -23t34 3l11 5q16 8 22 25.5t-2 34.5v0z" />
    <glyph glyph-name="fenleisousuo1" unicode="&#xe6aa;" 
d="M51 186h380q-58 40 -102 99h-278q-19 0 -32 -13.5t-13 -31.5v-9q0 -19 13 -32t32 -13zM875 174q-6 16 -23 23.5t-34 1.5l-11 -4q-17 -6 -24.5 -22.5t-1.5 -32.5l78 -202q6 -17 22.5 -24.5t34.5 -1.5l10 4q18 6 25.5 22.5t0.5 33.5zM690 21h-199v0h-12h-108h-320
q-19 0 -32 -13.5t-13 -32.5v-8q0 -19 13 -32t32 -13h269h171v-1h199q19 0 32 13.5t13 32.5v8q0 19 -13 32.5t-32 13.5zM982 682q-53 104 -158.5 151.5t-215.5 21.5q-41 -10 -76 -27q-49 -25 -88 -66q-78 -80 -91 -191q-6 -47 2 -94q8 -53 32 -99q26 -50 68 -90
q54 -52 125 -75q132 -44 256 20q61 31 104 82.5t62.5 111.5t15 127.5t-35.5 127.5zM684 277q-105 0 -179 74t-74 179t74 179t179 74t179 -74t74 -179t-74 -179t-179 -74zM258 557h-204q-20 0 -34 -14.5t-14 -34.5v-9q0 -20 14 -34.5t34 -14.5h210q-7 41 -7 80q0 6 1 27z
M334 285h-283q-19 0 -32 -13.5t-13 -31.5v-9q0 -19 13 -32t32 -13h269h112q-58 42 -98 99zM388 837h-17h-320q-19 0 -32 -13t-13 -32v-8q0 -19 13 -32.5t32 -13.5h260q31 55 77 99z" />
    <glyph glyph-name="xitongzuoceicon" unicode="&#xe782;" 
d="M133 238v66q0 9 6.5 15t15.5 6h245q51 -75 135 -109h-380q-9 0 -15.5 6.5t-6.5 15.5v0zM387 633h-232q-9 0 -15.5 6.5t-6.5 15.5v65q0 10 6.5 16t15.5 6h337q-67 -41 -105 -109v0zM155 534h198q-3 -22 -3 -44q0 -33 8 -66h-203q-9 0 -15.5 6.5t-6.5 15.5v66q0 9 6.5 15.5
t15.5 6.5v0zM155 117h537l60 -110h-597q-9 0 -15.5 6.5t-6.5 15.5v66q0 9 6.5 15.5t15.5 6.5v0zM833 68q-27 -15 -43 -33l-83 163q31 6 60 18q23 9 43 21l84 -164q-37 7 -61 -5v0zM649 344q60 0 103 43t43 103t-43 103t-103 43t-103 -43t-43 -103t43 -103t103 -43zM649 238
q-104 0 -178 74t-74 178.5t74 178t178.5 73.5t178 -73.5t73.5 -178t-73.5 -178.5t-178.5 -74v0v0zM841 109q23 0 39 -16t16 -39t-16 -39t-39 -16t-39 16t-16 39t16 39t39 16v0z" />
    <glyph glyph-name="sousuoleimufill" unicode="&#xe651;" 
d="M288 607h-205q-14 0 -24 10t-10 24t10 24t24 10h205q14 0 24.5 -10t10.5 -24t-10 -24t-25 -10v0zM280 270h-197q-14 0 -24 10t-10 24t10 24t24 10h197q14 0 24 -10t10 -24t-10 -24t-24 -10v0zM240 439h-157q-14 0 -24 10t-10 24t10 24t24 10h157q14 0 24 -10t10 -24
t-10 -24t-24 -10v0zM460 95h-377q-14 0 -24 10t-10 24t10 24t24 10h377q14 0 24 -10t10 -24t-10 -24t-24 -10v0zM421 470q0 87 61.5 148.5t148.5 61.5t149 -61.5t62 -148.5t-62 -148.5t-149 -61.5t-148.5 61.5t-61.5 148.5v0v0zM968 80l-148 192q85 82 85 198q0 113 -80 193
t-193.5 80t-194 -80t-80.5 -193t80.5 -193.5t193.5 -80.5q71 0 134 36l148 -194q11 -13 27 -13q12 0 21 7q11 9 13 23t-6 25v0v0zM779 471q0 -61 -43 -103.5t-103.5 -42.5t-103.5 42.5t-43 103.5t43 104t103.5 43t103.5 -43t43 -104z" />
    <glyph glyph-name="user-copy" unicode="&#xe60a;" 
d="M895 96q-28 78 -86 138.5t-134 92.5q42 36 65.5 86t23.5 106q0 105 -74 178.5t-178 73.5t-178 -73.5t-74 -178.5q0 -56 23.5 -106t65.5 -86q-76 -32 -134 -92.5t-86 -138.5q-13 -36 9 -68q22 -31 60 -31q9 0 15 6t6 14t-6 14t-15 6q-17 0 -26 14q-11 15 -5 32
q28 76 86.5 133.5t135.5 82.5q58 -32 123 -32t123 32q77 -25 135.5 -82.5t86.5 -133.5q6 -17 -5 -32q-9 -14 -26 -14q-9 0 -15 -6t-6 -14t6 -14t15 -6q38 0 60 31q22 32 9 68zM301 519.5q0 87.5 62 149.5t149 62t149 -62t62 -149.5t-62 -149.5t-149 -62t-149 62t-62 149.5z
" />
    <glyph glyph-name="user" unicode="&#xe603;" 
d="M512 248q-127 0 -217.5 89t-90.5 215.5t90.5 215.5t218 89t218 -89t90.5 -215.5t-90.5 -215.5t-218.5 -89v0zM512 796q-101 0 -173.5 -71.5t-72.5 -172t72.5 -172t174 -71.5t174 71.5t72.5 172t-72.5 172t-174.5 71.5v0zM936 -89h-26q-17 0 -20 16q-4 24 -11 45
q-18 66 -59.5 121.5t-99.5 92.5q-96 -53 -208 -53q-111 0 -208 54q-58 -38 -99.5 -93.5t-59.5 -121.5q-5 -18 -12 -46q-4 -15 -19 -15h-26q-7 0 -11.5 5t-3.5 12q14 107 76 194t157 136q93 -64 206 -64q114 0 207 64q94 -49 156 -136t76 -194q1 -7 -3.5 -12t-11.5 -5v0z" />
    <glyph glyph-name="shopping" unicode="&#xe601;" 
d="M864 48l-58 458q-4 32 -29.5 51t-59.5 19h-435q-25 0 -42 -12t-19 -33l-61 -486q-6 -46 22 -74q26 -35 68 -35h524q38 0 68 35q28 29 22 77zM794 13q-13 -13 -20 -13h-524q-7 0 -20 13q-9 9 -6 16l61 483h432q25 0 25 -16l58 -461q4 -12 -6 -22zM352 634q12 -3 23.5 5
t11.5 20q7 51 45.5 85t89.5 34t89 -33.5t45 -85.5q2 -12 11 -20.5t21 -8.5h3q12 3 20 13.5t6 22.5q-10 74 -67 123t-131.5 49t-131.5 -49t-67 -123q7 -28 32 -32zM662 326q-12 -2 -20 -12.5t-8 -22.5l25 -198q3 -12 11.5 -20.5t20.5 -8.5h3q12 2 20.5 12.5t8.5 22.5l-25 199
q0 14 -10.5 22.5t-25.5 5.5z" />
    <glyph glyph-name="sousuocaidan1" unicode="&#xe604;" 
d="M189 570h304v0q12 -2 12 -14.5t-12 -13.5v0v0h-2h-1h-299h-2q-5 0 -9 4t-4 9.5t4 10t9 4.5zM189 417h304v0q12 -2 12 -14t-12 -14v0v0h-2h-1h-299h-2q-5 0 -9 4t-4 10t4 10t9 4zM189 265v0h483h13v-1q11 -1 11 -13.5t-11 -13.5v-1h-1h-1h-2h-9h-481h-2q-5 0 -9 4.5t-4 10
t4 10t9 4.5zM189 112v0h483h13v0q11 -2 11 -14t-11 -14v0h-1h-1h-2h-9h-481h-2q-5 0 -9 4t-4 10t4 10t9 4zM697 618q66 0 113 -46.5t47 -113t-47 -112.5q-9 -9 -18 -16l122 -212q8 -13 -5.5 -21t-21.5 6l-122 211q-32 -15 -68 -15q-66 0 -112.5 46.5t-46.5 113t46.5 113
t112.5 46.5zM788 549.5q-38 37.5 -91 37.5t-90.5 -37.5t-37.5 -91t37.5 -91t90.5 -37.5t91 37.5t38 91t-38 91z" />
    <glyph glyph-name="user1" unicode="&#xe608;" 
d="M691 326q62 43 98.5 110.5t36.5 145.5q0 130 -92 222t-222 92q-85 0 -157 -42t-113 -113.5t-41 -155.5q0 -79 36 -146.5t98 -109.5q-139 -56 -225.5 -180t-86.5 -277h88q0 153 102 267t252 132l7 0.5t17 1t22 0.5t27 -0.5t27 -1.5h5q146 -21 244.5 -133.5t98.5 -263.5h90
q-2 152 -88 275.5t-224 176.5zM512 350q-98 0 -166.5 68.5t-68.5 166t68.5 166t166.5 68.5t166.5 -68.5t68.5 -166t-68.5 -166t-166.5 -68.5z" />
    <glyph glyph-name="android" unicode="&#xe60d;" 
d="M789 619q-8 0 -21 -5v5h-2q-6 48 -37 89.5t-78 68.5l30 42q0 2 1 6.5t1 6.5q0 10 -6 15.5t-16 5.5t-17 -10l-34 -49q-48 17 -98 17t-98 -17l-34 49q-7 10 -17 10t-16 -5.5t-6 -15.5q0 -6 5 -11l29 -42q-48 -26 -79 -67.5t-36 -90.5h-4v-4q-13 4 -21 4q-28 0 -46 -18.5
t-18 -45.5v-299q0 -27 18 -45.5t46 -18.5q8 0 21 4v-70q0 -18 12.5 -30.5t30.5 -12.5h42v-106q0 -28 18.5 -46t46 -18t45.5 18t18 46v106h86v-106q0 -28 18 -46t45.5 -18t46 18t18.5 46v106h42q18 0 30.5 12.5t12.5 30.5v68q13 -4 21 -4q28 0 46 18.5t18 45.5v299
q0 27 -18 45.5t-46 18.5zM256 256q0 -10 -6 -15.5t-15.5 -5.5t-15.5 5.5t-6 15.5v299q0 9 6 15t15.5 6t15.5 -6t6 -15v-299zM512 768q81 0 141.5 -43t69.5 -106h-422q9 63 69.5 106t141.5 43zM427 -21q0 -10 -6 -16t-15.5 -6t-15.5 6t-6 16v106h43v-106zM640 -21
q0 -10 -6 -16t-15.5 -6t-15.5 6t-6 16v106h43v-106zM725 128h-426v448h426v-448zM811 256q0 -10 -6 -15.5t-15.5 -5.5t-15.5 5.5t-6 15.5v299q0 9 6 15t15.5 6t15.5 -6t6 -15v-299zM576 704q-10 0 -15.5 -6t-5.5 -15.5t5.5 -15.5t15.5 -6t15.5 6t5.5 15.5t-5.5 15.5t-15.5 6
zM448 704q-10 0 -15.5 -6t-5.5 -15.5t5.5 -15.5t15.5 -6t15.5 6t5.5 15.5t-5.5 15.5t-15.5 6z" />
  </font>
</defs>
</svg>
